<mxfile host="app.diagrams.net" modified="2024-06-13T13:02:12.650Z" agent="Mozilla/5.0 (Windows NT 10.0; Win64; x64) AppleWebKit/537.36 (KHTML, like Gecko) Chrome/125.0.0.0 Safari/537.36" etag="46nLm2sH7NMD6n2DD7J6" version="24.5.4" type="github">
  <diagram name="Seite-1" id="bDzNP__Pml_VwFIEzuVF">
    <mxGraphModel dx="531" dy="286" grid="0" gridSize="10" guides="1" tooltips="1" connect="1" arrows="1" fold="1" page="1" pageScale="1" pageWidth="827" pageHeight="1169" math="0" shadow="0">
      <root>
        <mxCell id="0" />
        <mxCell id="1" parent="0" />
        <mxCell id="YrNULoBkXhTa5b3z1nX1-3" style="edgeStyle=orthogonalEdgeStyle;rounded=0;orthogonalLoop=1;jettySize=auto;html=1;endArrow=none;endFill=0;" edge="1" parent="1" source="YrNULoBkXhTa5b3z1nX1-1" target="YrNULoBkXhTa5b3z1nX1-2">
          <mxGeometry relative="1" as="geometry" />
        </mxCell>
        <mxCell id="YrNULoBkXhTa5b3z1nX1-1" value="Student:in" style="whiteSpace=wrap;html=1;align=center;fontSize=14;" vertex="1" parent="1">
          <mxGeometry x="40" y="40" width="140" height="40" as="geometry" />
        </mxCell>
        <mxCell id="YrNULoBkXhTa5b3z1nX1-2" value="Studierendenausweis" style="whiteSpace=wrap;html=1;align=center;fontSize=14;" vertex="1" parent="1">
          <mxGeometry x="260" y="40" width="150" height="40" as="geometry" />
        </mxCell>
        <mxCell id="YrNULoBkXhTa5b3z1nX1-6" style="edgeStyle=orthogonalEdgeStyle;rounded=0;orthogonalLoop=1;jettySize=auto;html=1;endArrow=none;endFill=0;" edge="1" parent="1" source="YrNULoBkXhTa5b3z1nX1-4" target="YrNULoBkXhTa5b3z1nX1-5">
          <mxGeometry relative="1" as="geometry" />
        </mxCell>
        <mxCell id="YrNULoBkXhTa5b3z1nX1-4" value="Student:in" style="ellipse;whiteSpace=wrap;html=1;align=center;fontStyle=0;" vertex="1" parent="1">
          <mxGeometry x="80" y="100" width="90" height="90" as="geometry" />
        </mxCell>
        <mxCell id="YrNULoBkXhTa5b3z1nX1-5" value="&lt;span style=&quot;font-size: 12px;&quot;&gt;Studierenden-ausweis&lt;/span&gt;" style="ellipse;whiteSpace=wrap;html=1;align=center;fontStyle=0;fontSize=12;" vertex="1" parent="1">
          <mxGeometry x="250" y="100" width="90" height="90" as="geometry" />
        </mxCell>
        <mxCell id="YrNULoBkXhTa5b3z1nX1-7" value="1" style="text;html=1;align=center;verticalAlign=middle;resizable=0;points=[];autosize=1;strokeColor=none;fillColor=none;" vertex="1" parent="1">
          <mxGeometry x="170" y="120" width="30" height="30" as="geometry" />
        </mxCell>
        <mxCell id="YrNULoBkXhTa5b3z1nX1-9" value="1" style="text;html=1;align=center;verticalAlign=middle;resizable=0;points=[];autosize=1;strokeColor=none;fillColor=none;" vertex="1" parent="1">
          <mxGeometry x="220" y="120" width="30" height="30" as="geometry" />
        </mxCell>
      </root>
    </mxGraphModel>
  </diagram>
</mxfile>
